<svg width="256px" height="256px" viewBox="0 0 256 256" version="1.1" xmlns="http://www.w3.org/2000/svg" xmlns:xlink="http://www.w3.org/1999/xlink">
  <defs>
    <linearGradient x1="14.2529534%" y1="16.4636389%" x2="86.5854624%" y2="82.6979507%" id="linearGradient-i4a1swae2_-1">
      <stop stop-color="#4A69FE" offset="0%"></stop>
      <stop stop-color="#4D2BD9" offset="100%"></stop>
    </linearGradient>
  </defs>
  <g id="Page-1" stroke="none" stroke-width="1" fill="none" fill-rule="evenodd">
    <g id="SafePal" fill-rule="nonzero">
      <circle id="path1432" fill="url(#linearGradient-i4a1swae2_-1)" opacity="0.98" cx="128" cy="128" r="128"></circle>
      <path d="M205.42149,142.0199 L205.42149,154.5236 C205.42149,189.26163 154.38883,209.25541 138.7462,214.55771 L138.7462,214.55771 L133.057,216.5 L133.057,194.88938 L135.83642,193.85307 C160.17356,184.80613 184.72927,169.13592 184.72927,154.5236 L184.72927,154.5236 L184.72927,142.0199 L205.42149,142.0199 Z M128.13331,39.499999 L148.98826,45.851406 L148.98826,67.90021 L128.13331,61.527214 L126.7691,61.944619 L126.7691,111.55402 L148.98826,111.55402 L148.98826,131.99398 L126.7691,131.99398 L126.7691,216.19749 L120.97548,214.0657 C118.28593,213.07816 113.95285,211.39575 108.59236,208.99449 L108.59236,208.99449 L106.07445,207.85902 L106.07445,46.223227 L128.13331,39.499999 Z M99.528026,48.299449 L99.528026,70.248301 L71.270737,78.912217 L71.270737,111.55363 L99.528026,111.55363 L99.528026,206.09226 L93.269686,202.91296 C73.794318,193.01283 50.578513,176.3183 50.578513,153.00848 L50.578513,153.00848 L50.578513,142.02006 L71.270737,142.02006 L71.270737,153.00848 C71.270737,157.83181 73.812128,162.89902 78.833382,168.11737 L78.833382,168.11737 L78.833382,131.99359 L50.578513,131.99359 L50.578513,63.222813 L99.528026,48.299449 Z M155.2697,47.776895 L205.42149,63.106469 L205.42149,131.99398 L175.97568,131.99398 L175.97568,161.82233 C175.97568,161.82233 169.39267,170.3463 155.28831,177.48375 C155.28831,173.5389 155.27931,112.88895 155.27391,75.939394 L155.2697,47.776895 Z M175.97568,76.143523 L175.97568,111.55402 L184.72927,111.55402 L184.72927,78.812664 L175.97568,76.143523 Z" id="形状结合" fill="#FFFFFF"></path>
    </g>
  </g>
</svg>
