
<svg width="265px" height="265px" viewBox="0 0 265 265" version="1.1" xmlns="http://www.w3.org/2000/svg" xmlns:xlink="http://www.w3.org/1999/xlink">
  <defs>
    <path d="M132.291667,264.583333 C205.354226,264.583333 264.583333,205.354226 264.583333,132.291667 C264.583333,59.2291077 205.354226,0 132.291667,0 C59.2291077,0 0,59.2291077 0,132.291667 C0,205.354226 59.2291077,264.583333 132.291667,264.583333 Z" id="path-yyb5lp4sx6-1"></path>
    <linearGradient x1="25.3061224%" y1="22.0238095%" x2="25.3061224%" y2="-0.551146384%" id="linearGradient-yyb5lp4sx6-3">
      <stop stop-color="#2BAFFF" offset="0%"></stop>
      <stop stop-color="#2761E7" offset="100%"></stop>
    </linearGradient>
    <linearGradient x1="48.6261206%" y1="22.0238095%" x2="48.2053849%" y2="20.4422175%" id="linearGradient-yyb5lp4sx6-4">
      <stop stop-color="#2BAFFF" offset="0%"></stop>
      <stop stop-color="#2761E7" offset="100%"></stop>
    </linearGradient>
    <polygon id="path-yyb5lp4sx6-5" points="1.58519837e-30 0 264.58 0 264.58 264.58 1.58519837e-30 264.58"></polygon>
    <polygon id="path-yyb5lp4sx6-7" points="0 0 73.760704 0 73.760704 143.833373 0 143.833373"></polygon>
    <polygon id="path-yyb5lp4sx6-9" points="0 143.062573 70.6771378 143.062573 70.6771378 0 0 0"></polygon>
    <polygon id="path-yyb5lp4sx6-11" points="0 0 77.4487392 0 77.4487392 147.521408 0 147.521408"></polygon>
    <polygon id="path-yyb5lp4sx6-13" points="0 0 73.760704 0 73.760704 143.833373 0 143.833373"></polygon>
    <path d="M70.6778754,108.712951 L65.8646206,108.712951 L65.8646206,143.062573 L2.20987069,143.062573 C0.989868648,143.062573 -2.0964053e-13,142.076024 -2.0964053e-13,140.860448 L-2.0964053e-13,92.4398647 C-2.0964053e-13,91.2242883 0.989868648,90.2388453 2.20987069,90.2388453 L26.5051714,90.2388453 L26.5051714,2.2002818 C26.5051714,0.984705398 27.4939336,0 28.7139357,0 L68.4691111,0 C69.6891131,0 70.6778754,0.984705398 70.6778754,2.2002818 L70.6778754,108.712951 Z" id="path-yyb5lp4sx6-15"></path>
    <polygon id="path-yyb5lp4sx6-17" points="0 0 77.4487392 0 77.4487392 143.833373 0 143.833373"></polygon>
    <path d="M59.3349543,142.956727 L44.0849288,142.956727 L2.20433864,142.956727 C0.98691822,142.956727 0,141.972021 0,140.757183 L0,2.2002818 C0,0.984705398 0.98691822,-4.19281059e-13 2.20433864,-4.19281059e-13 L41.8805901,-4.19281059e-13 C43.0980105,-4.19281059e-13 44.0849288,0.984705398 44.0849288,2.2002818 L44.0849288,37.3889321 L59.3349543,37.3889321 C88.5523068,37.3889321 112.236869,61.0214928 112.236869,90.1739359 C112.236869,119.324166 88.5523068,142.956727 59.3349543,142.956727" id="path-yyb5lp4sx6-19"></path>
    <polygon id="path-yyb5lp4sx6-21" points="0 0 4517.84312 0 4517.84312 16728.9277 0 16728.9277"></polygon>
  </defs>
  <g id="Page-1" stroke="none" stroke-width="1" fill="none" fill-rule="evenodd">
    <g id="TokenPocket" transform="translate(-0.000000, 0.000000)">
      <g id="g6139-Clipped" transform="translate(132.291667, 132.291667) scale(-1, 1) rotate(-180.000000) translate(-132.291667, -132.291667) translate(0.000000, 0.000000)">
        <mask id="mask-yyb5lp4sx6-2" fill="white">
          <use xlink:href="#path-yyb5lp4sx6-1"></use>
        </mask>
        <g id="path6141"></g>
        <g id="g6139" mask="url(#mask-yyb5lp4sx6-2)">
          <g transform="translate(-1143.290912, -3419.763832)" id="g6145">
            <g id="g6151" fill="url(#linearGradient-yyb5lp4sx6-3)" fill-rule="nonzero">
              <polygon id="path6159" points="0 0 4517.84312 0 4517.84312 16728.9277 0 16728.9277"></polygon>
            </g>
            <g id="g6161" fill="url(#linearGradient-yyb5lp4sx6-4)" fill-rule="nonzero">
              <polygon id="path6169" points="0 0 4517.84312 0 4517.84312 16728.9277 0 16728.9277"></polygon>
            </g>
          </g>
        </g>
      </g>
      <g id="g6171" transform="translate(132.290000, 132.290000) scale(-1, 1) rotate(-180.000000) translate(-132.290000, -132.290000) translate(0.000000, 0.000000)">
        <g id="g6173-Clipped" transform="translate(-0.000000, 0.000000)">
          <mask id="mask-yyb5lp4sx6-6" fill="white">
            <use xlink:href="#path-yyb5lp4sx6-5"></use>
          </mask>
          <g id="path6175"></g>
          <g id="g6173" mask="url(#mask-yyb5lp4sx6-6)">
            <g transform="translate(59.008563, 50.673958)" id="g6229-Clipped">
              <mask id="mask-yyb5lp4sx6-8" fill="white">
                <use xlink:href="#path-yyb5lp4sx6-7"></use>
              </mask>
              <g id="path6181"></g>
              <g id="g6229" opacity="0.6" mask="url(#mask-yyb5lp4sx6-8)">
                <g transform="translate(0.000000, 0.147890)" id="g6225-Clipped">
                  <mask id="mask-yyb5lp4sx6-10" fill="white">
                    <use xlink:href="#path-yyb5lp4sx6-9"></use>
                  </mask>
                  <g id="path6185"></g>
                  <g id="g6225" mask="url(#mask-yyb5lp4sx6-10)">
                    <g transform="translate(-3.688035, -3.835925)" id="g6223-Clipped">
                      <mask id="mask-yyb5lp4sx6-12" fill="white">
                        <use xlink:href="#path-yyb5lp4sx6-11"></use>
                      </mask>
                      <g id="path6189"></g>
                      <g id="g6223" mask="url(#mask-yyb5lp4sx6-12)">
                        <g transform="translate(3.688035, 3.688035)" id="g6219-Clipped">
                          <mask id="mask-yyb5lp4sx6-14" fill="white">
                            <use xlink:href="#path-yyb5lp4sx6-13"></use>
                          </mask>
                          <g id="path6193"></g>
                          <g id="g6219" mask="url(#mask-yyb5lp4sx6-14)">
                            <g transform="translate(-0.000738, 0.147890)" id="g6215-Clipped">
                              <mask id="mask-yyb5lp4sx6-16" fill="white">
                                <use xlink:href="#path-yyb5lp4sx6-15"></use>
                              </mask>
                              <g id="path6197"></g>
                              <g id="g6215" mask="url(#mask-yyb5lp4sx6-16)">
                                <g transform="translate(-3.687298, -0.147890)" id="g6213-Clipped">
                                  <mask id="mask-yyb5lp4sx6-18" fill="white">
                                    <use xlink:href="#path-yyb5lp4sx6-17"></use>
                                  </mask>
                                  <g id="path6201"></g>
                                  <g id="g6213" mask="url(#mask-yyb5lp4sx6-18)" fill="#FFFFFF" fill-rule="nonzero">
                                    <g transform="translate(-14.752878, -18.292286)" id="path6211">
                                      <polygon points="2.0964053e-13 -4.19281059e-13 107.558449 -4.19281059e-13 107.558449 179.942704 2.0964053e-13 179.942704"></polygon>
                                    </g>
                                  </g>
                                </g>
                              </g>
                            </g>
                          </g>
                        </g>
                      </g>
                    </g>
                  </g>
                </g>
              </g>
            </g>
          </g>
        </g>
      </g>
      <g id="g6235-Clipped" transform="translate(168.342764, 126.798892) scale(-1, 1) rotate(-180.000000) translate(-168.342764, -126.798892) translate(112.224330, 55.320528)">
        <mask id="mask-yyb5lp4sx6-20" fill="white">
          <use xlink:href="#path-yyb5lp4sx6-19"></use>
        </mask>
        <g id="path6237"></g>
        <g id="g6235" mask="url(#mask-yyb5lp4sx6-20)">
          <g transform="translate(-1255.515242, -3486.069910)" id="g6241-Clipped">
            <mask id="mask-yyb5lp4sx6-22" fill="white">
              <use xlink:href="#path-yyb5lp4sx6-21"></use>
            </mask>
            <g id="path6243"></g>
            <g id="g6241" mask="url(#mask-yyb5lp4sx6-22)" fill="#FFFFFF" fill-rule="nonzero">
              <g transform="translate(1237.075066, 3467.629734)" id="path6247">
                <polygon points="0 0 149.117184 0 149.117184 179.837153 0 179.837153"></polygon>
              </g>
            </g>
          </g>
        </g>
      </g>
    </g>
  </g>
</svg>
